<?xml version="1.0" encoding="UTF-8" standalone="no"?>
<!-- Created with Inkscape (http://www.inkscape.org/) -->

<svg
   xmlns:dc="http://purl.org/dc/elements/1.1/"
   xmlns:cc="http://creativecommons.org/ns#"
   xmlns:rdf="http://www.w3.org/1999/02/22-rdf-syntax-ns#"
   xmlns:svg="http://www.w3.org/2000/svg"
   xmlns="http://www.w3.org/2000/svg"
   xmlns:sodipodi="http://sodipodi.sourceforge.net/DTD/sodipodi-0.dtd"
   xmlns:inkscape="http://www.inkscape.org/namespaces/inkscape"
   width="744.09448819"
   height="1052.3622047"
   id="svg2"
   version="1.1"
   inkscape:version="0.48.4 r9939"
   sodipodi:docname="rob0.svg">
  <defs
     id="defs4">
    <marker
       inkscape:stockid="Arrow1Mend"
       orient="auto"
       refY="0.0"
       refX="0.0"
       id="Arrow1Mend"
       style="overflow:visible;">
      <path
         id="path4329"
         d="M 0.0,0.0 L 5.0,-5.0 L -12.5,0.0 L 5.0,5.0 L 0.0,0.0 z "
         style="fill-rule:evenodd;stroke:#000000;stroke-width:1.0pt;"
         transform="scale(0.4) rotate(180) translate(10,0)" />
    </marker>
    <marker
       inkscape:stockid="Arrow1Lend"
       orient="auto"
       refY="0.0"
       refX="0.0"
       id="Arrow1Lend"
       style="overflow:visible;">
      <path
         id="path4249"
         d="M 0.0,0.0 L 5.0,-5.0 L -12.5,0.0 L 5.0,5.0 L 0.0,0.0 z "
         style="fill-rule:evenodd;stroke:#000000;stroke-width:1.0pt;marker-start:none;"
         transform="scale(0.8) rotate(180) translate(12.5,0)" />
    </marker>
    <marker
       inkscape:stockid="Arrow1Lend"
       orient="auto"
       refY="0"
       refX="0"
       id="Arrow1Lend-2"
       style="overflow:visible">
      <path
         inkscape:connector-curvature="0"
         id="path4249-7"
         d="M 0,0 5,-5 -12.5,0 5,5 0,0 z"
         style="fill-rule:evenodd;stroke:#000000;stroke-width:1pt;marker-start:none"
         transform="matrix(-0.8,0,0,-0.8,-10,0)" />
    </marker>
    <marker
       inkscape:stockid="Arrow1Lend"
       orient="auto"
       refY="0"
       refX="0"
       id="Arrow1Lend-5"
       style="overflow:visible">
      <path
         inkscape:connector-curvature="0"
         id="path4249-4"
         d="M 0,0 5,-5 -12.5,0 5,5 0,0 z"
         style="fill-rule:evenodd;stroke:#000000;stroke-width:1pt;marker-start:none"
         transform="matrix(-0.8,0,0,-0.8,-10,0)" />
    </marker>
    <marker
       inkscape:stockid="Arrow1Lend"
       orient="auto"
       refY="0"
       refX="0"
       id="Arrow1Lend-6"
       style="overflow:visible">
      <path
         inkscape:connector-curvature="0"
         id="path4249-1"
         d="M 0,0 5,-5 -12.5,0 5,5 0,0 z"
         style="fill-rule:evenodd;stroke:#000000;stroke-width:1pt;marker-start:none"
         transform="matrix(-0.8,0,0,-0.8,-10,0)" />
    </marker>
    <marker
       inkscape:stockid="Arrow1Mend"
       orient="auto"
       refY="0"
       refX="0"
       id="Arrow1Mend-4"
       style="overflow:visible">
      <path
         inkscape:connector-curvature="0"
         id="path4329-2"
         d="M 0,0 5,-5 -12.5,0 5,5 0,0 z"
         style="fill-rule:evenodd;stroke:#000000;stroke-width:1pt"
         transform="matrix(-0.4,0,0,-0.4,-4,0)" />
    </marker>
    <marker
       inkscape:stockid="Arrow1Mend"
       orient="auto"
       refY="0"
       refX="0"
       id="Arrow1Mend-2"
       style="overflow:visible">
      <path
         inkscape:connector-curvature="0"
         id="path4329-21"
         d="M 0,0 5,-5 -12.5,0 5,5 0,0 z"
         style="fill-rule:evenodd;stroke:#000000;stroke-width:1pt"
         transform="matrix(-0.4,0,0,-0.4,-4,0)" />
    </marker>
    <marker
       inkscape:stockid="Arrow1Mend"
       orient="auto"
       refY="0"
       refX="0"
       id="Arrow1Mend-1"
       style="overflow:visible">
      <path
         inkscape:connector-curvature="0"
         id="path4329-7"
         d="M 0,0 5,-5 -12.5,0 5,5 0,0 z"
         style="fill-rule:evenodd;stroke:#000000;stroke-width:1pt"
         transform="matrix(-0.4,0,0,-0.4,-4,0)" />
    </marker>
  </defs>
  <sodipodi:namedview
     id="base"
     pagecolor="#ffffff"
     bordercolor="#666666"
     borderopacity="1.0"
     inkscape:pageopacity="0.0"
     inkscape:pageshadow="2"
     inkscape:zoom="2"
     inkscape:cx="207.5419"
     inkscape:cy="859.8387"
     inkscape:document-units="px"
     inkscape:current-layer="layer1"
     showgrid="false"
     showguides="true"
     inkscape:guide-bbox="true"
     inkscape:window-width="1366"
     inkscape:window-height="706"
     inkscape:window-x="-8"
     inkscape:window-y="-8"
     inkscape:window-maximized="1"
     inkscape:snap-global="true"
     inkscape:snap-grids="true">
    <inkscape:grid
       type="xygrid"
       id="grid3798" />
  </sodipodi:namedview>
  <metadata
     id="metadata7">
    <rdf:RDF>
      <cc:Work
         rdf:about="">
        <dc:format>image/svg+xml</dc:format>
        <dc:type
           rdf:resource="http://purl.org/dc/dcmitype/StillImage" />
        <dc:title />
      </cc:Work>
    </rdf:RDF>
  </metadata>
  <g
     inkscape:label="Layer 1"
     inkscape:groupmode="layer"
     id="layer1">
    <rect
       style="fill:#0000ff;fill-opacity:0"
       id="rect3775"
       width="0.66954374"
       height="4.6868062"
       x="164.75995"
       y="229.31363" />
    <rect
       style="fill:#0000ff;fill-opacity:0;fill-rule:evenodd;stroke:#000000;stroke-width:0.33140722px;stroke-linecap:butt;stroke-linejoin:miter;stroke-opacity:1"
       id="rect2987-7"
       width="28.406336"
       height="28.406336"
       x="163.55183"
       y="196.494" />
    <path
       style="fill:#0000ff;fill-opacity:0"
       id="path4031"
       d="m 187.00892,203.97235 c -1.95418,-0.51924 -3.95777,-0.80741 -5.96126,-1.05475 -1.63815,-0.1882 -3.28382,-0.30086 -4.93206,-0.33841 -0.84515,-0.005 -1.69155,-0.0266 -2.53538,0.0262 -1.05146,0.0653 -2.1028,0.13384 -3.15514,0.18374 0,0 2.67518,-1.95975 2.67518,-1.95975 l 0,0 c 1.04663,-0.0324 2.09235,-0.087 3.13569,-0.17778 0.84966,-0.0484 1.70098,-0.0299 2.55119,0.002 1.5957,0.0906 3.18193,0.28951 4.76687,0.49071 0.86777,0.11533 1.8666,0.24567 2.73088,0.37053 1.02202,0.14766 2.04502,0.34338 3.07285,0.44929 0.13008,0.0134 0.26131,0.0108 0.39196,0.0162 0,0 -2.74078,1.99129 -2.74078,1.99129 z"
       inkscape:connector-curvature="0" />
    <path
       style="fill:#0000ff;fill-opacity:0"
       id="path4033"
       d="m 174.73047,200.83985 c 2.67103,0.31604 5.31134,0.81409 7.95439,1.30684 4.07698,0.72079 8.12491,1.58057 12.16812,2.467 0.32528,0.0713 0.65055,0.14269 0.97583,0.21403 0,0 -2.61025,1.79844 -2.61025,1.79844 l 0,0 c -0.29906,-0.0882 -0.59813,-0.17637 -0.89718,-0.26456 -3.93076,-1.0715 -7.90089,-1.97779 -11.92886,-2.60849 -2.78262,-0.4417 -5.57679,-0.91254 -8.40282,-0.92196 0,0 2.74077,-1.9913 2.74077,-1.9913 z"
       inkscape:connector-curvature="0" />
    <path
       sodipodi:type="arc"
       style="fill:#0000ff;fill-opacity:0"
       id="path4041"
       sodipodi:cx="217.5"
       sodipodi:cy="157.36218"
       sodipodi:rx="12.5"
       sodipodi:ry="5"
       d="m 230,157.36218 a 12.5,5 0 1 1 -25,0 12.5,5 0 1 1 25,0 z"
       transform="matrix(0.6455672,0,0,0.6455672,57.276405,101.51615)" />
    <path
       sodipodi:type="arc"
       style="fill:#0000ff;fill-opacity:0"
       id="path4043"
       sodipodi:cx="210"
       sodipodi:cy="157.36218"
       sodipodi:rx="20"
       sodipodi:ry="5"
       d="m 230,157.36218 a 20,5 0 1 1 -40,0 20,5 0 1 1 40,0 z"
       transform="matrix(0.6455672,0,0,0.6455672,57.276405,101.51615)" />
    <path
       sodipodi:type="arc"
       style="fill:#0000ff;fill-opacity:0"
       id="path4045"
       sodipodi:cx="242.5"
       sodipodi:cy="152.36218"
       sodipodi:rx="27.5"
       sodipodi:ry="5"
       d="m 270,152.36218 a 27.5,5 0 1 1 -55,0 27.5,5 0 1 1 55,0 z"
       transform="matrix(0.6455672,0,0,0.6455672,57.276405,101.51615)" />
    <path
       sodipodi:type="arc"
       style="fill:#0000ff;fill-opacity:0"
       id="path4047"
       sodipodi:cx="225"
       sodipodi:cy="152.36218"
       sodipodi:rx="10"
       sodipodi:ry="0"
       d="m 235,152.36218 a 10,0 0 0 1 -10,0 l 0,0 z"
       sodipodi:start="0"
       sodipodi:end="1.5707963"
       transform="matrix(0.6455672,0,0,0.6455672,57.276405,101.51615)" />
    <path
       style="fill:#0000ff;fill-opacity:0"
       id="path4057"
       d="m 191.98097,272.97082 c -1.67068,-1.15094 -3.52122,-2.02702 -5.36854,-2.85406 -1.52204,-0.66206 -3.08635,-1.21348 -4.57365,-1.95267 -0.80576,-0.43294 -1.60968,-0.86573 -2.49713,-1.10266 -0.53167,-0.1211 -1.07927,-0.11657 -1.62132,-0.11615 -0.54496,-5.7e-4 -1.08989,0.006 -1.63483,0.0107 -0.59377,0.0106 -1.16899,-0.23239 -1.69544,-0.48638 -0.55391,-0.26643 -1.0936,-0.55531 -1.61014,-0.88815 0,0 2.78546,-1.78951 2.78546,-1.78951 l 0,0 c 0.50486,0.32576 1.03511,0.60379 1.58971,0.83668 0.5294,0.20371 1.06906,0.39167 1.64541,0.3526 0.5452,-0.002 1.09039,-0.005 1.63559,-0.005 0.5598,0.0119 1.1252,0.0289 1.66259,0.20452 0.86768,0.2997 1.66023,0.75936 2.46838,1.18916 1.44468,0.73728 2.94844,1.3486 4.41389,2.04286 1.89566,0.87274 3.77432,1.78477 5.63936,2.72076 0,0 -2.83934,1.8371 -2.83934,1.8371 z"
       inkscape:connector-curvature="0" />
    <path
       style="fill:#0000ff;fill-opacity:0"
       id="path4059"
       d="m 175.20605,262.97654 c 2.9459,0.65966 5.76794,1.74569 8.60121,2.76825 5.34791,1.97274 10.63937,4.09263 15.93913,6.18987 1.57762,0.60793 3.15718,1.25319 4.80819,1.6385 1.23395,0.31378 2.47752,0.5866 3.71979,0.8649 1.84632,0.38574 3.65643,0.91529 5.48282,1.38238 1.90551,0.47887 3.83046,0.86912 5.7565,1.25472 5.23526,1.11875 10.45459,2.31264 15.69427,3.41315 5.22896,1.1425 10.47315,2.20585 15.7717,2.96971 2.93424,0.39761 5.8881,0.59683 8.84119,0.78766 1.69352,0.13594 5.49336,-0.21078 -0.96496,2.07857 -0.59798,0.21197 -1.26146,-0.13692 -1.89218,-0.20531 -1.38042,-0.14971 -2.76083,-0.29931 -4.14126,-0.44897 -14.0794,-1.67243 -28.16639,-3.3468 -42.17424,-5.55573 -2.83005,-0.44628 -5.65084,-0.9495 -8.47626,-1.42426 -10.04242,-1.8677 -20.05578,-3.90085 -30.04209,-6.04921 -0.0833,-0.11714 -0.38196,-0.29452 -0.24996,-0.35139 1.51104,-0.65104 3.05036,-1.35783 4.68335,-1.55876 1.27071,-0.15635 2.53888,0.33306 3.80631,0.51417 1.87118,0.26738 3.74042,0.54827 5.6093,0.83124 6.86877,1.03999 7.58583,1.17252 14.66314,2.31002 7.04791,1.19324 14.09785,2.37518 21.14198,3.59067 1.63593,0.28228 3.2696,0.57756 4.90589,0.85767 0.88655,0.15175 2.92602,-0.42212 2.66251,0.43785 -0.37109,1.21105 -2.23172,1.19864 -3.34759,1.79795 -14.13556,-2.58905 -28.36033,-4.66581 -42.59884,-6.59678 -3.14842,-0.40375 -6.4884,-0.83976 -9.66015,-1.22231 -0.74777,-0.0902 -1.50172,-0.13454 -2.24496,-0.25656 -0.12572,-0.0207 -0.4616,-0.1214 -0.34315,-0.16832 1.52139,-0.60252 3.03668,-1.34131 4.66073,-1.54157 1.24608,-0.15365 2.48821,0.33775 3.73232,0.50663 12.76574,1.73124 25.45978,3.94053 38.11545,6.33692 5.02551,1.0661 10.12257,1.83391 15.10698,3.09238 0.13525,0.0439 0.51628,0.0424 0.40573,0.13192 -1.06951,0.86547 -2.21242,1.65205 -3.42152,2.30852 -0.51827,0.28137 -1.13247,0.33054 -1.70436,0.4745 -0.8284,0.2085 -1.65793,0.41521 -2.4956,0.58264 -3.37768,0.67509 -3.33639,0.56652 -6.94465,0.88722 -4.85298,0.13811 -9.63143,-0.66383 -14.20619,-2.29275 -3.61156,-1.28596 -7.33349,-3.19036 -10.66534,-5.05767 -1.74022,-0.9753 -3.42511,-2.04626 -5.13765,-3.06939 -6.44917,-4.15382 -12.7412,-8.56633 -18.84066,-13.21995 -1.4645,-1.03054 -2.79856,-2.18608 -3.89865,-3.59866 -0.89635,-1.19322 -1.71644,-2.43629 -2.43838,-3.74206 -0.75562,-1.33014 -1.12676,-2.71728 -1.27271,-4.22904 0.0279,-0.3179 0.0231,-0.64041 0.0837,-0.95374 0.591,-3.0542 3.0538,-5.14894 5.25508,-7.10534 0.66264,-0.49318 1.30752,-1.01118 1.98793,-1.47955 0.68334,-0.4704 1.38647,-0.91252 2.10054,-1.33482 2.75921,-1.63177 5.46145,-3.20121 8.45052,-4.34723 0.56412,-0.21628 1.14142,-0.39648 1.71213,-0.59473 2.18561,-0.70693 4.46529,-1.06756 6.76,-1.06921 1.46912,0.0247 2.37117,0.53861 3.55994,1.31567 1.56582,1.24436 2.75641,2.90251 3.91284,4.51808 0.85395,1.27953 1.72543,2.51704 2.20189,3.99044 0.26984,1.13209 0.2886,2.30609 0.18195,3.45975 -0.21432,1.34988 -1.07711,1.90831 -2.08983,2.70983 -1.20958,0.86241 -2.42943,1.71024 -3.53581,2.70356 -1.67676,1.66324 -3.37793,3.30249 -4.99861,5.02094 -0.93838,0.93677 -1.71286,2.0346 -2.68517,2.93888 -0.23626,0.21974 -0.46942,0.44927 -0.74284,0.62055 -1.16688,0.73097 -2.37912,1.38691 -3.56867,2.08036 -0.84961,0.27055 -1.26923,0.47843 -2.19425,0.45554 -1.58224,-0.0391 -3.17446,-0.72316 -4.53169,-1.47516 -0.60863,-0.33722 -1.18055,-0.73683 -1.77083,-1.10525 -3.51888,-2.40036 -6.40422,-5.57543 -9.05407,-8.87954 -0.51856,-0.67206 -1.01118,-1.37138 -1.41094,-2.12213 -0.10508,-0.19734 -0.19838,-0.4351 -0.16939,-0.45383 0.96414,-0.62322 1.98662,-1.15123 2.97993,-1.72683 0.58114,0.88833 0.90771,1.91749 1.24506,2.91598 0.47346,1.5549 0.83459,3.14098 1.28633,4.70188 0.39536,1.36612 0.63207,2.05074 1.08222,3.43256 1.05516,2.98258 2.26886,5.90847 3.81367,8.67397 0.97641,1.74796 1.52431,2.518 2.61226,4.17217 1.05402,1.48284 2.14313,2.95804 3.43918,4.24269 0.2742,0.27181 0.57601,0.51427 0.86402,0.77139 0,0 -2.65698,1.63446 -2.65698,1.63446 l 0,0 c -0.26736,-0.27955 -0.54612,-0.54862 -0.80207,-0.83864 -1.2101,-1.37121 -2.22787,-2.89367 -3.25752,-4.40038 -1.03854,-1.63593 -1.62398,-2.51163 -2.58321,-4.2171 -1.55631,-2.76703 -2.85387,-5.66332 -3.98636,-8.62721 -0.37866,-1.0462 -0.84971,-2.3182 -1.19753,-3.3863 -0.49725,-1.52699 -0.8839,-3.08907 -1.42084,-4.60359 -0.24408,-0.62357 -0.48744,-1.23722 -0.78516,-1.83715 -0.0873,-0.17594 -0.23144,-0.55745 -0.42909,-0.66234 0.94723,-0.5805 1.89287,-1.16364 2.84171,-1.74151 0.0263,-0.016 -0.0717,0.025 -0.0736,0.0557 -0.006,0.0926 0.0246,0.18498 0.0533,0.27327 0.25579,0.79059 0.71397,1.50461 1.15115,2.20147 0.2944,0.41617 0.57654,0.84129 0.88321,1.24854 2.22294,2.95195 4.8804,5.5977 7.9894,7.61029 0.60218,0.34739 1.18621,0.72836 1.80656,1.04218 1.38993,0.70312 2.99003,1.29234 4.57701,1.23409 0.9321,-0.0342 1.31539,-0.25624 2.15638,-0.57731 -0.61074,0.3633 -1.18886,0.7881 -1.8322,1.08993 -0.28713,0.1347 0.51451,-0.37273 0.75186,-0.58308 1.00924,-0.89444 1.78712,-2.02326 2.75191,-2.9611 1.59979,-1.69412 3.28342,-3.30507 4.88707,-4.99562 1.06656,-1.04652 2.30616,-1.87998 3.53036,-2.73172 0.56147,-0.43784 1.38992,-0.99698 1.79039,-1.59929 0.2036,-0.30621 0.23453,-0.49717 0.34633,-0.85027 0.15202,-1.11124 0.10994,-2.24086 -0.12158,-3.34008 -0.41055,-1.44722 -1.214,-2.71719 -2.02986,-3.96984 -1.11909,-1.60134 -2.33717,-3.2002 -3.9296,-4.35923 -1.13421,-0.67753 -2.07888,-1.17266 -3.44136,-1.17848 -2.20224,-0.004 -4.3882,0.32478 -6.48969,0.99466 -1.55533,0.53529 -1.94267,0.63052 -3.4968,1.3347 -0.68366,0.30977 -1.33935,0.6791 -2.02378,0.98716 -0.10315,0.0465 0.37101,-0.25859 0.27439,-0.19973 -2.44586,1.49013 -1.77727,1.07479 -4.06989,2.75786 -2.08096,1.84372 -4.46908,3.85587 -5.01021,6.74537 -0.0545,0.29107 -0.0506,0.5901 -0.0759,0.88515 0.13256,1.46931 0.49421,2.81137 1.22459,4.10463 0.70665,1.29199 1.51099,2.52467 2.39621,3.70207 1.09837,1.33053 2.34401,2.53174 3.60624,3.70552 5.569,5.08224 11.62315,9.62704 17.92493,13.75839 3.99039,2.38637 6.2299,3.87382 10.47276,5.81535 5.06395,2.31726 9.96954,3.79701 15.5415,4.16987 1.45731,0.0975 2.92114,1e-4 4.38171,1.5e-4 3.63219,-0.40728 3.75537,-0.30685 7.16756,-1.10279 0.88979,-0.20756 1.77156,-0.45109 2.64493,-0.7195 0.63692,-0.19576 1.84485,-1.33723 1.88263,-0.67198 0.15322,2.69731 -1.43475,1.73932 -2.14439,1.3658 -1.17105,-0.4632 -2.36619,-0.83213 -3.5786,-1.17548 -3.45525,-0.97849 -6.95251,-1.79985 -10.44576,-2.62868 -1.82644,-0.4005 -3.64858,-0.82121 -5.47935,-1.20148 -10.88858,-2.26174 -21.90355,-3.98321 -32.99438,-4.85346 -5.72728,-0.27511 -4.21143,1.11175 -3.46788,-1.94925 0.0241,-0.0993 -0.37612,0.0825 -0.28158,0.12129 0.59321,0.24362 1.22635,0.37952 1.85131,0.52334 2.75702,0.63449 6.31075,1.21279 8.99667,1.68634 7.86739,1.32919 15.73785,2.63877 23.6468,3.7022 4.0855,0.54933 11.38441,1.44335 15.70426,1.76281 1.49866,0.11082 3.00362,0.10656 4.50544,0.15985 -0.49817,0.55439 -0.77006,1.48798 -1.49451,1.66318 -0.73851,0.1786 -1.40676,-0.58604 -2.14028,-0.78412 -1.52855,-0.41276 -3.08546,-0.7128 -4.63351,-1.04505 -6.88263,-1.47724 -13.80765,-2.75597 -20.76132,-3.85078 -6.45802,-0.92665 -8.72867,-1.3139 -15.09692,-1.99729 -1.99452,-0.21404 -3.99191,-0.40617 -5.99268,-0.55042 -1.40702,-0.10144 -2.96864,0.44937 -4.22789,-0.18644 -1.44902,-0.73163 1.70422,-2.06713 0.32576,-1.44086 0.55532,0.21375 1.09838,0.46256 1.66596,0.64124 1.44051,0.45349 6.38368,1.72451 7.48693,2.00014 6.44567,1.61032 12.92352,3.10077 19.4434,4.38066 2.78625,0.50128 5.56659,1.03648 8.35874,1.50385 14.2847,2.39109 28.69987,4.1185 43.16914,4.8306 1.54493,0.0282 3.08959,0.0824 4.63478,0.0847 0.74248,7.9e-4 2.2501,-0.81671 2.22618,-0.0746 -0.0321,0.99477 -1.47319,1.34634 -2.28569,1.92116 -0.0954,0.0675 -0.22936,-0.0454 -0.34526,-0.0599 -0.30446,-0.0379 -1.39469,-0.13287 -1.62182,-0.15332 -2.89386,-0.26856 -5.79718,-0.46361 -8.66763,-0.93967 -5.20312,-0.89717 -10.35041,-2.06541 -15.51295,-3.16695 -5.34185,-1.10593 -10.68063,-2.24596 -16.06149,-3.14737 -1.98256,-0.31666 -3.97349,-0.61489 -5.90397,-1.18189 -1.81827,-0.48507 -3.62534,-1.01637 -5.47547,-1.37089 -1.27812,-0.26617 -2.56677,-0.48886 -3.83288,-0.8081 -1.557,-0.48957 -3.03157,-1.20271 -4.50587,-1.89468 -5.12433,-2.36197 -10.33473,-4.54174 -15.68957,-6.33123 -3.01697,-0.94694 -6.0421,-1.94532 -9.19769,-2.31163 0,0 2.77897,-1.9364 2.77897,-1.9364 z"
       inkscape:connector-curvature="0" />
    <rect
       style="fill:#0000ff;fill-opacity:0;fill-rule:evenodd;stroke:#000000;stroke-width:0.33140722px;stroke-linecap:butt;stroke-linejoin:miter;stroke-opacity:1"
       id="rect2987-7-1"
       width="28.406336"
       height="28.406336"
       x="192.12656"
       y="196.494" />
    <rect
       style="fill:#0000ff;fill-opacity:0;fill-rule:evenodd;stroke:#000000;stroke-width:0.33140722px;stroke-linecap:butt;stroke-linejoin:miter;stroke-opacity:1"
       id="rect2987-7-7"
       width="28.406336"
       height="28.406336"
       x="220.41835"
       y="196.494" />
    <rect
       style="fill:#0000ff;fill-opacity:0;fill-rule:evenodd;stroke:#000000;stroke-width:0.33140722px;stroke-linecap:butt;stroke-linejoin:miter;stroke-opacity:1"
       id="rect2987-7-0"
       width="28.406336"
       height="28.406336"
       x="163.55183"
       y="225.06873" />
    <path
       style="fill:#0000ff;fill-opacity:0"
       id="path4031-9"
       d="m 187.00892,232.54708 c -1.95418,-0.51925 -3.95777,-0.80742 -5.96126,-1.05475 -1.63815,-0.1882 -3.28382,-0.30087 -4.93206,-0.33842 -0.84515,-0.005 -1.69155,-0.0266 -2.53538,0.0262 -1.05146,0.0653 -2.1028,0.13384 -3.15514,0.18374 0,0 2.67518,-1.95975 2.67518,-1.95975 l 0,0 c 1.04663,-0.0324 2.09235,-0.087 3.13569,-0.17778 0.84966,-0.0484 1.70098,-0.0299 2.55119,0.002 1.5957,0.0906 3.18193,0.28951 4.76687,0.49071 0.86777,0.11533 1.8666,0.24567 2.73088,0.37053 1.02202,0.14766 2.04502,0.34338 3.07285,0.44929 0.13008,0.0134 0.26131,0.0108 0.39196,0.0163 0,0 -2.74078,1.99129 -2.74078,1.99129 z"
       inkscape:connector-curvature="0" />
    <path
       style="fill:#0000ff;fill-opacity:0"
       id="path4033-4"
       d="m 174.73047,229.41458 c 2.67103,0.31604 5.31134,0.81409 7.95439,1.30683 4.07698,0.72079 8.12491,1.58057 12.16812,2.467 0.32528,0.0713 0.65055,0.14269 0.97583,0.21403 0,0 -2.61025,1.79845 -2.61025,1.79845 l 0,0 c -0.29906,-0.0882 -0.59813,-0.17638 -0.89718,-0.26456 -3.93076,-1.07151 -7.90089,-1.97779 -11.92886,-2.6085 -2.78262,-0.44169 -5.57679,-0.91254 -8.40282,-0.92196 0,0 2.74077,-1.99129 2.74077,-1.99129 z"
       inkscape:connector-curvature="0" />
    <path
       sodipodi:type="arc"
       style="fill:#0000ff;fill-opacity:0"
       id="path4041-8"
       sodipodi:cx="217.5"
       sodipodi:cy="157.36218"
       sodipodi:rx="12.5"
       sodipodi:ry="5"
       d="m 230,157.36218 a 12.5,5 0 1 1 -25,0 12.5,5 0 1 1 25,0 z"
       transform="matrix(0.6455672,0,0,0.6455672,57.276404,130.09087)" />
    <path
       sodipodi:type="arc"
       style="fill:#0000ff;fill-opacity:0"
       id="path4043-8"
       sodipodi:cx="210"
       sodipodi:cy="157.36218"
       sodipodi:rx="20"
       sodipodi:ry="5"
       d="m 230,157.36218 a 20,5 0 1 1 -40,0 20,5 0 1 1 40,0 z"
       transform="matrix(0.6455672,0,0,0.6455672,57.276404,130.09087)" />
    <path
       sodipodi:type="arc"
       style="fill:#0000ff;fill-opacity:0"
       id="path4045-2"
       sodipodi:cx="242.5"
       sodipodi:cy="152.36218"
       sodipodi:rx="27.5"
       sodipodi:ry="5"
       d="m 270,152.36218 a 27.5,5 0 1 1 -55,0 27.5,5 0 1 1 55,0 z"
       transform="matrix(0.6455672,0,0,0.6455672,57.276404,130.09087)" />
    <rect
       style="fill:#0000ff;fill-opacity:0;fill-rule:evenodd;stroke:#000000;stroke-width:0.33140722px;stroke-linecap:butt;stroke-linejoin:miter;stroke-opacity:1"
       id="rect2987-7-1-4"
       width="28.406336"
       height="28.406336"
       x="192.12656"
       y="225.06873" />
    <rect
       style="fill:#0000ff;fill-opacity:0;fill-rule:evenodd;stroke:#000000;stroke-width:0.33140722px;stroke-linecap:butt;stroke-linejoin:miter;stroke-opacity:1"
       id="rect2987-7-7-5"
       width="28.406336"
       height="28.406336"
       x="220.41835"
       y="225.06873" />
    <rect
       style="fill:#0000ff;fill-opacity:0;fill-rule:evenodd;stroke:#000000;stroke-width:0.33140722px;stroke-linecap:butt;stroke-linejoin:miter;stroke-opacity:1"
       id="rect2987-7-5"
       width="28.406336"
       height="28.406336"
       x="163.55183"
       y="253.64345" />
    <path
       style="fill:#0000ff;fill-opacity:0"
       id="path4031-1"
       d="m 187.00892,261.1218 c -1.95418,-0.51925 -3.95777,-0.80741 -5.96126,-1.05475 -1.63815,-0.1882 -3.28382,-0.30087 -4.93206,-0.33842 -0.84515,-0.005 -1.69155,-0.0266 -2.53538,0.0262 -1.05146,0.0653 -2.1028,0.13384 -3.15514,0.18374 0,0 2.67518,-1.95974 2.67518,-1.95974 l 0,0 c 1.04663,-0.0324 2.09235,-0.087 3.13569,-0.17779 0.84966,-0.0484 1.70098,-0.0299 2.55119,0.002 1.5957,0.0906 3.18193,0.28952 4.76687,0.49072 0.86777,0.11532 1.8666,0.24566 2.73088,0.37052 1.02202,0.14766 2.04502,0.34338 3.07285,0.44929 0.13008,0.0134 0.26131,0.0108 0.39196,0.0163 0,0 -2.74078,1.99131 -2.74078,1.99131 z"
       inkscape:connector-curvature="0" />
    <path
       style="fill:#0000ff;fill-opacity:0"
       id="path4033-7"
       d="m 174.73047,257.9893 c 2.67103,0.31604 5.31134,0.81409 7.95439,1.30683 4.07698,0.72079 8.12491,1.58057 12.16812,2.467 0.32528,0.0713 0.65055,0.1427 0.97583,0.21403 0,0 -2.61025,1.79845 -2.61025,1.79845 l 0,0 c -0.29906,-0.0882 -0.59813,-0.17637 -0.89718,-0.26456 -3.93076,-1.07151 -7.90089,-1.97779 -11.92886,-2.60849 -2.78262,-0.4417 -5.57679,-0.91254 -8.40282,-0.92197 0,0 2.74077,-1.99129 2.74077,-1.99129 z"
       inkscape:connector-curvature="0" />
    <path
       sodipodi:type="arc"
       style="fill:#0000ff;fill-opacity:0"
       id="path4041-1"
       sodipodi:cx="217.5"
       sodipodi:cy="157.36218"
       sodipodi:rx="12.5"
       sodipodi:ry="5"
       d="m 230,157.36218 a 12.5,5 0 1 1 -25,0 12.5,5 0 1 1 25,0 z"
       transform="matrix(0.6455672,0,0,0.6455672,57.276404,158.6656)" />
    <path
       sodipodi:type="arc"
       style="fill:#0000ff;fill-opacity:0"
       id="path4043-1"
       sodipodi:cx="210"
       sodipodi:cy="157.36218"
       sodipodi:rx="20"
       sodipodi:ry="5"
       d="m 230,157.36218 a 20,5 0 1 1 -40,0 20,5 0 1 1 40,0 z"
       transform="matrix(0.6455672,0,0,0.6455672,57.276404,158.6656)" />
    <path
       sodipodi:type="arc"
       style="fill:#0000ff;fill-opacity:0"
       id="path4045-5"
       sodipodi:cx="242.5"
       sodipodi:cy="152.36218"
       sodipodi:rx="27.5"
       sodipodi:ry="5"
       d="m 270,152.36218 a 27.5,5 0 1 1 -55,0 27.5,5 0 1 1 55,0 z"
       transform="matrix(0.6455672,0,0,0.6455672,57.276404,158.6656)" />
    <rect
       style="fill:#0000ff;fill-opacity:0;fill-rule:evenodd;stroke:#000000;stroke-width:0.33140722px;stroke-linecap:butt;stroke-linejoin:miter;stroke-opacity:1"
       id="rect2987-7-1-2"
       width="28.406336"
       height="28.406336"
       x="192.12656"
       y="253.64345" />
    <rect
       style="fill:#0000ff;fill-opacity:0;fill-rule:evenodd;stroke:#000000;stroke-width:0.33140722px;stroke-linecap:butt;stroke-linejoin:miter;stroke-opacity:1"
       id="rect2987-7-7-7"
       width="28.406336"
       height="28.406336"
       x="220.41835"
       y="253.64345" />
    <path
       style="fill:#666666;stroke:#000000;stroke-width:1.86550343;stroke-linecap:butt;stroke-linejoin:miter;stroke-miterlimit:5.19999981;stroke-opacity:1;stroke-dasharray:none;marker-start:none;marker-end:url(#Arrow1Mend)"
       d="m 222.34251,239.48624 c -3.82267,0 -3.82267,0 -7.64536,0"
       id="path4061-9"
       inkscape:connector-curvature="0"
       sodipodi:nodetypes="cc" />
    <path
       style="fill:#666666;stroke:#000000;stroke-width:1.86550343;stroke-linecap:butt;stroke-linejoin:miter;stroke-miterlimit:5.19999981;stroke-opacity:1;stroke-dasharray:none;marker-start:none;marker-end:url(#Arrow1Mend)"
       d="m 207.5,250.88058 c 0,3.82267 0,3.82267 0,7.64536"
       id="path4061-9-4"
       inkscape:connector-curvature="0"
       sodipodi:nodetypes="cc" />
    <text
       xml:space="preserve"
       style="font-size:40px;font-style:normal;font-weight:normal;line-height:125%;letter-spacing:0px;word-spacing:0px;fill:#000000;fill-opacity:1;stroke:none;font-family:Sans"
       x="228"
       y="246.36218"
       id="text3052"
       sodipodi:linespacing="125%"><tspan
         sodipodi:role="line"
         id="tspan3054"
         x="228"
         y="246.36218"
         style="font-size:20px">R</tspan></text>
  </g>
</svg>
