<?xml version="1.0" encoding="UTF-8" standalone="no"?>
<!-- Created with Inkscape (http://www.inkscape.org/) -->

<svg
   xmlns:dc="http://purl.org/dc/elements/1.1/"
   xmlns:cc="http://creativecommons.org/ns#"
   xmlns:rdf="http://www.w3.org/1999/02/22-rdf-syntax-ns#"
   xmlns:svg="http://www.w3.org/2000/svg"
   xmlns="http://www.w3.org/2000/svg"
   xmlns:sodipodi="http://sodipodi.sourceforge.net/DTD/sodipodi-0.dtd"
   xmlns:inkscape="http://www.inkscape.org/namespaces/inkscape"
   width="744.09448819"
   height="1052.3622047"
   id="svg2"
   version="1.1"
   inkscape:version="0.48.2 r9819"
   sodipodi:docname="kwa.eps">
  <defs
     id="defs4">
    <marker
       inkscape:stockid="Arrow1Lend"
       orient="auto"
       refY="0.0"
       refX="0.0"
       id="Arrow1Lend"
       style="overflow:visible;">
      <path
         id="path4249"
         d="M 0.0,0.0 L 5.0,-5.0 L -12.5,0.0 L 5.0,5.0 L 0.0,0.0 z "
         style="fill-rule:evenodd;stroke:#000000;stroke-width:1.0pt;marker-start:none;"
         transform="scale(0.8) rotate(180) translate(12.5,0)" />
    </marker>
    <marker
       inkscape:stockid="Arrow1Lend"
       orient="auto"
       refY="0"
       refX="0"
       id="Arrow1Lend-2"
       style="overflow:visible">
      <path
         inkscape:connector-curvature="0"
         id="path4249-7"
         d="M 0,0 5,-5 -12.5,0 5,5 0,0 z"
         style="fill-rule:evenodd;stroke:#000000;stroke-width:1pt;marker-start:none"
         transform="matrix(-0.8,0,0,-0.8,-10,0)" />
    </marker>
    <marker
       inkscape:stockid="Arrow1Lend"
       orient="auto"
       refY="0"
       refX="0"
       id="Arrow1Lend-5"
       style="overflow:visible">
      <path
         inkscape:connector-curvature="0"
         id="path4249-4"
         d="M 0,0 5,-5 -12.5,0 5,5 0,0 z"
         style="fill-rule:evenodd;stroke:#000000;stroke-width:1pt;marker-start:none"
         transform="matrix(-0.8,0,0,-0.8,-10,0)" />
    </marker>
  </defs>
  <sodipodi:namedview
     id="base"
     pagecolor="#ffffff"
     bordercolor="#666666"
     borderopacity="1.0"
     inkscape:pageopacity="0.0"
     inkscape:pageshadow="2"
     inkscape:zoom="2"
     inkscape:cx="285.5419"
     inkscape:cy="885.54263"
     inkscape:document-units="px"
     inkscape:current-layer="layer1"
     showgrid="true"
     showguides="true"
     inkscape:guide-bbox="true"
     inkscape:window-width="1366"
     inkscape:window-height="706"
     inkscape:window-x="-8"
     inkscape:window-y="-8"
     inkscape:window-maximized="1">
    <inkscape:grid
       type="xygrid"
       id="grid3798" />
  </sodipodi:namedview>
  <metadata
     id="metadata7">
    <rdf:RDF>
      <cc:Work
         rdf:about="">
        <dc:format>image/svg+xml</dc:format>
        <dc:type
           rdf:resource="http://purl.org/dc/dcmitype/StillImage" />
        <dc:title></dc:title>
      </cc:Work>
    </rdf:RDF>
  </metadata>
  <g
     inkscape:label="Layer 1"
     inkscape:groupmode="layer"
     id="layer1">
    <rect
       style="fill:#0000ff;fill-opacity:0;fill-rule:evenodd;stroke:#000000;stroke-width:0.58569473px;stroke-linecap:butt;stroke-linejoin:miter;stroke-opacity:1"
       id="rect2987"
       width="50.202408"
       height="50.202408"
       x="394.79761"
       y="162.01581" />
    <rect
       style="fill:#0000ff;fill-opacity:0;fill-rule:evenodd;stroke:#000000;stroke-width:0.58569473px;stroke-linecap:butt;stroke-linejoin:miter;stroke-opacity:1"
       id="rect2987-1"
       width="50.202408"
       height="50.202408"
       x="332.04764"
       y="162.01581" />
    <rect
       style="fill:#0000ff;fill-opacity:0"
       id="rect3775"
       width="1.1832821"
       height="8.2829752"
       x="167.1828"
       y="185.51781" />
    <rect
       style="fill:#0000ff;fill-opacity:0;fill-rule:evenodd;stroke:#000000;stroke-width:0.58569473px;stroke-linecap:butt;stroke-linejoin:miter;stroke-opacity:1"
       id="rect2987-7"
       width="50.202408"
       height="50.202408"
       x="206.5477"
       y="162.01581" />
    <rect
       style="fill:#0000ff;fill-opacity:0;fill-rule:evenodd;stroke:#000000;stroke-width:0.58569473px;stroke-linecap:butt;stroke-linejoin:miter;stroke-opacity:1"
       id="rect2987-4"
       width="50.202408"
       height="50.202408"
       x="269.29767"
       y="162.01581" />
    <text
       xml:space="preserve"
       style="font-size:45.63633728px;font-style:normal;font-weight:normal;line-height:125%;letter-spacing:0px;word-spacing:0px;fill:#000000;fill-opacity:1;stroke:none;font-family:Sans"
       x="228.22739"
       y="173.42488"
       id="text3794"
       sodipodi:linespacing="125%"><tspan
         sodipodi:role="line"
         id="tspan3796"
         x="228.22739"
         y="173.42488"
         style="font-size:12.54999256px">1</tspan></text>
    <text
       xml:space="preserve"
       style="font-size:45.63633728px;font-style:normal;font-weight:normal;line-height:125%;letter-spacing:0px;word-spacing:0px;fill:#000000;fill-opacity:1;stroke:none;font-family:Sans"
       x="290.97736"
       y="173.42488"
       id="text3794-0"
       sodipodi:linespacing="125%"><tspan
         sodipodi:role="line"
         id="tspan3796-9"
         x="290.97736"
         y="173.42488"
         style="font-size:12.54999256px">1</tspan></text>
    <text
       xml:space="preserve"
       style="font-size:45.63633728px;font-style:normal;font-weight:normal;line-height:125%;letter-spacing:0px;word-spacing:0px;fill:#000000;fill-opacity:1;stroke:none;font-family:Sans"
       x="336.61371"
       y="190.53853"
       id="text3794-4"
       sodipodi:linespacing="125%"><tspan
         sodipodi:role="line"
         id="tspan3796-8"
         x="336.61371"
         y="190.53853"
         style="font-size:12.54999256px">1</tspan></text>
    <text
       xml:space="preserve"
       style="font-size:45.63633728px;font-style:normal;font-weight:normal;line-height:125%;letter-spacing:0px;word-spacing:0px;fill:#000000;fill-opacity:1;stroke:none;font-family:Sans"
       x="416.47729"
       y="173.42488"
       id="text3794-8"
       sodipodi:linespacing="125%"><tspan
         sodipodi:role="line"
         id="tspan3796-2"
         x="416.47729"
         y="173.42488"
         style="font-size:12.54999256px">1</tspan></text>
    <text
       xml:space="preserve"
       style="font-size:11.40908432px;font-style:normal;font-weight:normal;line-height:125%;letter-spacing:0px;word-spacing:0px;fill:#000000;fill-opacity:1;stroke:none;font-family:Sans"
       x="228.22739"
       y="207.65215"
       id="text3890"
       sodipodi:linespacing="125%"><tspan
         sodipodi:role="line"
         id="tspan3892"
         x="228.22739"
         y="207.65215">2</tspan></text>
    <text
       xml:space="preserve"
       style="font-size:11.40908432px;font-style:normal;font-weight:normal;line-height:125%;letter-spacing:0px;word-spacing:0px;fill:#000000;fill-opacity:1;stroke:none;font-family:Sans"
       x="290.97736"
       y="207.65215"
       id="text3890-5"
       sodipodi:linespacing="125%"><tspan
         sodipodi:role="line"
         id="tspan3892-2"
         x="290.97736"
         y="207.65215">2</tspan></text>
    <text
       xml:space="preserve"
       style="font-size:11.40908432px;font-style:normal;font-weight:normal;line-height:125%;letter-spacing:0px;word-spacing:0px;fill:#000000;fill-opacity:1;stroke:none;font-family:Sans"
       x="353.72733"
       y="207.65215"
       id="text3890-7"
       sodipodi:linespacing="125%"><tspan
         sodipodi:role="line"
         id="tspan3892-6"
         x="353.72733"
         y="207.65215">2</tspan></text>
    <text
       xml:space="preserve"
       style="font-size:11.40908432px;font-style:normal;font-weight:normal;line-height:125%;letter-spacing:0px;word-spacing:0px;fill:#000000;fill-opacity:1;stroke:none;font-family:Sans"
       x="399.36365"
       y="190.53853"
       id="text3890-7-1"
       sodipodi:linespacing="125%"><tspan
         sodipodi:role="line"
         id="tspan3892-6-4"
         x="399.36365"
         y="190.53853">2</tspan></text>
    <text
       xml:space="preserve"
       style="font-size:45.63633728px;font-style:normal;font-weight:normal;line-height:125%;letter-spacing:0px;word-spacing:0px;fill:#000000;fill-opacity:1;stroke:none;font-family:Sans"
       x="211.11377"
       y="190.53853"
       id="text3945"
       sodipodi:linespacing="125%"><tspan
         sodipodi:role="line"
         id="tspan3947"
         x="211.11377"
         y="190.53853"
         style="font-size:11.40908432px">3</tspan></text>
    <text
       xml:space="preserve"
       style="font-size:45.63633728px;font-style:normal;font-weight:normal;line-height:125%;letter-spacing:0px;word-spacing:0px;fill:#000000;fill-opacity:1;stroke:none;font-family:Sans"
       x="245.34103"
       y="190.53853"
       id="text3949"
       sodipodi:linespacing="125%"><tspan
         sodipodi:role="line"
         id="tspan3951"
         x="245.34103"
         y="190.53853"
         style="font-size:11.40908432px">4</tspan></text>
    <text
       xml:space="preserve"
       style="font-size:45.63633728px;font-style:normal;font-weight:normal;line-height:125%;letter-spacing:0px;word-spacing:0px;fill:#000000;fill-opacity:1;stroke:none;font-family:Sans"
       x="273.86374"
       y="190.53853"
       id="text3945-2"
       sodipodi:linespacing="125%"><tspan
         sodipodi:role="line"
         id="tspan3947-3"
         x="273.86374"
         y="190.53853"
         style="font-size:11.40908432px">3</tspan></text>
    <text
       xml:space="preserve"
       style="font-size:45.63633728px;font-style:normal;font-weight:normal;line-height:125%;letter-spacing:0px;word-spacing:0px;fill:#000000;fill-opacity:1;stroke:none;font-family:Sans"
       x="353.72733"
       y="173.42488"
       id="text3945-22"
       sodipodi:linespacing="125%"><tspan
         sodipodi:role="line"
         id="tspan3947-1"
         x="353.72733"
         y="173.42488"
         style="font-size:11.40908432px">3</tspan></text>
    <text
       xml:space="preserve"
       style="font-size:45.63633728px;font-style:normal;font-weight:normal;line-height:125%;letter-spacing:0px;word-spacing:0px;fill:#000000;fill-opacity:1;stroke:none;font-family:Sans"
       x="416.47729"
       y="207.65215"
       id="text3945-6"
       sodipodi:linespacing="125%"><tspan
         sodipodi:role="line"
         id="tspan3947-8"
         x="416.47729"
         y="207.65215"
         style="font-size:11.40908432px">3</tspan></text>
    <text
       xml:space="preserve"
       style="font-size:45.63633728px;font-style:normal;font-weight:normal;line-height:125%;letter-spacing:0px;word-spacing:0px;fill:#000000;fill-opacity:1;stroke:none;font-family:Sans"
       x="370.84094"
       y="190.53853"
       id="text3949-5"
       sodipodi:linespacing="125%"><tspan
         sodipodi:role="line"
         id="tspan3951-7"
         x="370.84094"
         y="190.53853"
         style="font-size:11.40908432px">4</tspan></text>
    <text
       xml:space="preserve"
       style="font-size:45.63633728px;font-style:normal;font-weight:normal;line-height:125%;letter-spacing:0px;word-spacing:0px;fill:#000000;fill-opacity:1;stroke:none;font-family:Sans"
       x="308.09097"
       y="190.53853"
       id="text3949-6"
       sodipodi:linespacing="125%"><tspan
         sodipodi:role="line"
         id="tspan3951-1"
         x="308.09097"
         y="190.53853"
         style="font-size:11.40908432px">4</tspan></text>
    <text
       xml:space="preserve"
       style="font-size:45.63633728px;font-style:normal;font-weight:normal;line-height:125%;letter-spacing:0px;word-spacing:0px;fill:#000000;fill-opacity:1;stroke:none;font-family:Sans"
       x="433.59091"
       y="190.53853"
       id="text3949-8"
       sodipodi:linespacing="125%"><tspan
         sodipodi:role="line"
         id="tspan3951-9"
         x="433.59091"
         y="190.53853"
         style="font-size:11.40908432px">4</tspan></text>
    <path
       style="fill:#0000ff;fill-opacity:0"
       id="path4031"
       d="m 206.50332,140.73227 c -3.45361,-0.91767 -6.99455,-1.42694 -10.53531,-1.86407 -2.89509,-0.3326 -5.80348,-0.53171 -8.7164,-0.59807 -1.49363,-0.009 -2.98948,-0.047 -4.48077,0.0463 -1.85824,0.11547 -3.71628,0.23653 -5.57606,0.32472 0,0 4.72782,-3.46346 4.72782,-3.46346 l 0,0 c 1.84971,-0.0573 3.69781,-0.15371 5.5417,-0.31419 1.50161,-0.0856 3.00614,-0.0528 4.50871,0.004 2.82008,0.16006 5.62342,0.51166 8.42446,0.86724 1.53361,0.20382 3.29884,0.43416 4.82629,0.65483 1.80621,0.26096 3.61414,0.60686 5.43063,0.79403 0.22989,0.0237 0.46181,0.0191 0.69271,0.0287 0,0 -4.84378,3.51921 -4.84378,3.51921 z"
       inkscape:connector-curvature="0" />
    <path
       style="fill:#0000ff;fill-opacity:0"
       id="path4033"
       d="m 184.80368,135.19621 c 4.72049,0.55854 9.38671,1.43874 14.05775,2.30956 7.20523,1.27385 14.35912,2.79334 21.50468,4.35992 0.57486,0.12609 1.1497,0.25218 1.72457,0.37826 0,0 -4.61308,3.17839 -4.61308,3.17839 l 0,0 c -0.52853,-0.15585 -1.05706,-0.31171 -1.58559,-0.46756 -6.9468,-1.89367 -13.96319,-3.49535 -21.08181,-4.60998 -4.91773,-0.78061 -9.85586,-1.61273 -14.85029,-1.62939 0,0 4.84377,-3.5192 4.84377,-3.5192 z"
       inkscape:connector-curvature="0" />
    <path
       sodipodi:type="arc"
       style="fill:#0000ff;fill-opacity:0"
       id="path4041"
       sodipodi:cx="217.5"
       sodipodi:cy="157.36218"
       sodipodi:rx="12.5"
       sodipodi:ry="5"
       d="m 230,157.36218 a 12.5,5 0 1 1 -25,0 12.5,5 0 1 1 25,0 z"
       transform="matrix(1.1409085,0,0,1.1409085,-22.772457,-40.338201)" />
    <path
       sodipodi:type="arc"
       style="fill:#0000ff;fill-opacity:0"
       id="path4043"
       sodipodi:cx="210"
       sodipodi:cy="157.36218"
       sodipodi:rx="20"
       sodipodi:ry="5"
       d="m 230,157.36218 a 20,5 0 1 1 -40,0 20,5 0 1 1 40,0 z"
       transform="matrix(1.1409085,0,0,1.1409085,-22.772457,-40.338201)" />
    <path
       sodipodi:type="arc"
       style="fill:#0000ff;fill-opacity:0"
       id="path4045"
       sodipodi:cx="242.5"
       sodipodi:cy="152.36218"
       sodipodi:rx="27.5"
       sodipodi:ry="5"
       d="m 270,152.36218 a 27.5,5 0 1 1 -55,0 27.5,5 0 1 1 55,0 z"
       transform="matrix(1.1409085,0,0,1.1409085,-22.772457,-40.338201)" />
    <path
       sodipodi:type="arc"
       style="fill:#0000ff;fill-opacity:0"
       id="path4047"
       sodipodi:cx="225"
       sodipodi:cy="152.36218"
       sodipodi:rx="10"
       sodipodi:ry="0"
       d="m 235,152.36218 a 10,0 0 0 1 -10,0 l 0,0 z"
       sodipodi:start="0"
       sodipodi:end="1.5707963"
       transform="matrix(1.1409085,0,0,1.1409085,-22.772457,-40.338201)" />
    <path
       style="fill:#0000ff;fill-opacity:0"
       id="path4057"
       d="m 215.29042,262.673 c -2.95259,-2.03406 -6.22304,-3.58235 -9.4878,-5.04397 -2.6899,-1.17006 -5.4545,-2.14458 -8.083,-3.45096 -1.42402,-0.76513 -2.84477,-1.52998 -4.41317,-1.94872 -0.93962,-0.21401 -1.9074,-0.20601 -2.86535,-0.20528 -0.96311,-0.001 -1.92616,0.0117 -2.88923,0.0189 -1.04937,0.0188 -2.06595,-0.4107 -2.99636,-0.85957 -0.97891,-0.47086 -1.93271,-0.9814 -2.84559,-1.56963 0,0 4.92274,-3.1626 4.92274,-3.1626 l 0,0 c 0.89223,0.57573 1.82935,1.06708 2.80949,1.47867 0.9356,0.36002 1.88934,0.69219 2.90793,0.62315 0.96353,-0.003 1.92704,-0.009 2.89057,-0.008 0.98934,0.021 1.98856,0.051 2.9383,0.36145 1.53344,0.52966 2.9341,1.34201 4.36234,2.10159 2.55318,1.30299 5.21077,2.38339 7.80067,3.61034 3.35019,1.5424 6.67034,3.15423 9.96641,4.80839 0,0 -5.01795,3.24671 -5.01795,3.24671 z"
       inkscape:connector-curvature="0" />
    <path
       style="fill:#0000ff;fill-opacity:0"
       id="path4059"
       d="m 185.64417,245.01014 c 5.20627,1.16581 10.19364,3.08516 15.20087,4.89232 9.45135,3.48642 18.80292,7.23289 28.16918,10.93933 2.7881,1.07439 5.57966,2.21477 8.49748,2.89571 2.18076,0.55455 4.37852,1.0367 6.57398,1.52853 3.26299,0.68173 6.462,1.6176 9.68977,2.44309 3.36759,0.84629 6.76955,1.53599 10.17344,2.21746 9.25225,1.97716 18.47635,4.08711 27.73642,6.03205 9.24113,2.01913 18.50916,3.89839 27.87328,5.24835 5.18566,0.70269 10.406,1.05478 15.625,1.39203 2.99293,0.24025 9.70838,-0.3725 -1.70539,3.67346 -1.0568,0.37461 -2.22936,-0.24199 -3.34403,-0.36286 -2.43961,-0.26456 -4.87922,-0.52897 -7.31883,-0.79345 -24.88248,-2.95568 -49.77837,-5.91479 -74.53437,-9.81864 -5.00156,-0.7887 -9.98672,-1.67804 -14.98008,-2.51707 -17.74792,-3.30078 -35.4445,-6.89396 -53.09326,-10.69076 -0.14725,-0.20701 -0.67505,-0.52049 -0.44176,-0.621 2.67045,-1.15058 5.39089,-2.3997 8.27687,-2.75479 2.24572,-0.27632 4.48696,0.58862 6.72687,0.90868 3.30693,0.47254 6.61043,0.96897 9.9133,1.46905 12.13916,1.83797 13.4064,2.0722 25.91412,4.08249 12.45574,2.10881 24.91506,4.19765 37.36413,6.34578 2.89117,0.49887 5.77835,1.02073 8.67017,1.51575 1.56678,0.2682 5.17113,-0.74599 4.70543,0.77382 -0.65581,2.14028 -3.94411,2.11835 -5.91617,3.17752 -24.98172,-4.57562 -50.12111,-8.24587 -75.28479,-11.65848 -5.56419,-0.71354 -11.4669,-1.48411 -17.07234,-2.16018 -1.32153,-0.15938 -2.65398,-0.23777 -3.9675,-0.45341 -0.22219,-0.0366 -0.81579,-0.21457 -0.60645,-0.29748 2.68875,-1.06482 5.36671,-2.37048 8.23688,-2.72441 2.2022,-0.27154 4.39742,0.59691 6.59612,0.89537 22.56086,3.05961 44.99498,6.96407 67.36131,11.19921 8.88154,1.88413 17.88957,3.24107 26.6985,5.46515 0.23903,0.0777 0.91242,0.075 0.71704,0.23315 -1.89014,1.52954 -3.90999,2.91966 -6.04684,4.07983 -0.91593,0.49728 -2.00141,0.58418 -3.01212,0.83858 -1.46402,0.36849 -2.93005,0.73381 -4.41046,1.02971 -5.96935,1.19308 -5.89639,1.00121 -12.27326,1.56797 -8.57665,0.24409 -17.02158,-1.17317 -25.10654,-4.05197 -6.38269,-2.27267 -12.96045,-5.6383 -18.8488,-8.9384 -3.0755,-1.72365 -6.05318,-3.61634 -9.07976,-5.42451 -11.3976,-7.34104 -22.51748,-15.13925 -33.29703,-23.36357 -2.5882,-1.82128 -4.94588,-3.86346 -6.89007,-6.3599 -1.5841,-2.10878 -3.03345,-4.30565 -4.30933,-6.61333 -1.3354,-2.35075 -1.99132,-4.80223 -2.24926,-7.47397 0.0493,-0.56183 0.0408,-1.1318 0.14799,-1.68554 1.04447,-5.39767 5.39698,-9.0997 9.28728,-12.55723 1.17109,-0.8716 2.31078,-1.78706 3.51327,-2.61481 1.20767,-0.83133 2.45031,-1.6127 3.71227,-2.35902 4.87634,-2.88382 9.652,-5.6575 14.93457,-7.68284 0.99697,-0.38223 2.01724,-0.70071 3.02584,-1.05107 3.86263,-1.24936 7.8915,-1.88669 11.94693,-1.88961 2.59636,0.0436 4.19056,0.95187 6.29147,2.32517 2.76727,2.19916 4.87139,5.12959 6.91514,7.9848 1.5092,2.2613 3.04935,4.44834 3.8914,7.05228 0.47689,2.00075 0.51004,4.07555 0.32156,6.11441 -0.37877,2.38563 -1.90358,3.37255 -3.69335,4.78907 -2.13769,1.52413 -4.29353,3.02249 -6.24883,4.77798 -2.96333,2.93945 -5.96979,5.83648 -8.83402,8.87349 -1.6584,1.65556 -3.02713,3.59574 -4.74549,5.19388 -0.41754,0.38834 -0.82961,0.79398 -1.31282,1.09669 -2.06222,1.29184 -4.20461,2.45108 -6.3069,3.67662 -1.50151,0.47815 -2.24309,0.84551 -3.87788,0.80507 -2.79629,-0.0691 -5.61021,-1.27804 -8.00885,-2.60704 -1.07563,-0.59597 -2.08638,-1.3022 -3.12957,-1.9533 -6.21891,-4.24216 -11.31817,-9.85345 -16.00122,-15.69279 -0.91646,-1.18772 -1.78707,-2.42363 -2.49356,-3.75042 -0.18571,-0.34877 -0.35058,-0.76896 -0.29937,-0.80206 1.70394,-1.10141 3.51096,-2.03455 5.26643,-3.05183 1.02705,1.56996 1.60418,3.38879 2.20038,5.1534 0.83674,2.74798 1.47498,5.55105 2.27333,8.30962 0.69873,2.41434 1.11706,3.62427 1.9126,6.06635 1.86479,5.27111 4.00976,10.44201 6.7399,15.32948 1.7256,3.08917 2.6939,4.45005 4.61663,7.37346 1.86277,2.62062 3.78754,5.22774 6.07804,7.49809 0.48461,0.48036 1.01798,0.90886 1.52699,1.36329 0,0 -4.69567,2.88856 -4.69567,2.88856 l 0,0 c -0.4725,-0.49405 -0.96515,-0.96957 -1.41749,-1.48213 -2.13861,-2.42333 -3.93732,-5.11396 -5.75701,-7.77677 -1.83542,-2.89117 -2.87005,-4.4388 -4.5653,-7.45287 -2.75046,-4.89015 -5.04363,-10.00876 -7.04507,-15.24683 -0.6692,-1.84895 -1.50169,-4.09696 -2.11639,-5.9846 -0.8788,-2.69865 -1.56213,-5.45929 -2.51106,-8.1359 -0.43134,-1.10204 -0.86144,-2.18654 -1.3876,-3.24679 -0.15431,-0.31093 -0.40903,-0.98519 -0.75833,-1.17056 1.67405,-1.02591 3.34526,-2.05649 5.02215,-3.07776 0.0464,-0.0283 -0.12673,0.0442 -0.13011,0.0984 -0.0103,0.16368 0.0435,0.3269 0.0941,0.48294 0.45207,1.3972 1.26182,2.65909 2.03442,3.89064 0.5203,0.73551 1.01894,1.48683 1.56091,2.20654 3.92859,5.21698 8.62511,9.8928 14.11962,13.44966 1.06424,0.61394 2.0964,1.28722 3.19274,1.84184 2.45641,1.24262 5.28427,2.28394 8.08894,2.18099 1.64728,-0.0605 2.32467,-0.45284 3.81095,-1.02028 -1.07935,0.64207 -2.10106,1.3928 -3.23803,1.92623 -0.50744,0.23806 0.90928,-0.65872 1.32875,-1.03047 1.78363,-1.58073 3.15838,-3.5757 4.86344,-5.23315 2.82732,-2.994 5.80279,-5.84102 8.63691,-8.82873 1.88493,-1.8495 4.07566,-3.32248 6.23919,-4.82775 0.99228,-0.7738 2.4564,-1.76196 3.16415,-2.82643 0.35981,-0.54116 0.41447,-0.87864 0.61205,-1.50267 0.26869,-1.9639 0.19431,-3.96027 -0.21484,-5.90291 -0.72558,-2.55768 -2.14551,-4.80209 -3.58737,-7.0159 -1.97778,-2.83003 -4.13049,-5.65569 -6.94478,-7.70404 -2.00449,-1.19741 -3.674,-2.07244 -6.0819,-2.08272 -3.89201,-0.007 -7.75525,0.57397 -11.46919,1.75786 -2.74874,0.94601 -3.43329,1.1143 -6.1799,2.35881 -1.20822,0.54746 -2.36702,1.20016 -3.57661,1.7446 -0.1823,0.0821 0.65568,-0.45701 0.48493,-0.35299 -4.32256,2.63351 -3.14096,1.89948 -7.1927,4.87397 -3.67769,3.2584 -7.89819,6.81445 -8.85453,11.92106 -0.0963,0.51441 -0.0895,1.04288 -0.13415,1.56433 0.23427,2.5967 0.87342,4.96851 2.16423,7.25409 1.24885,2.28332 2.67036,4.46183 4.23481,6.54266 1.94114,2.35144 4.14255,4.47433 6.37328,6.54874 9.84208,8.98182 20.54155,17.01385 31.67867,24.31515 7.0522,4.21743 11.01008,6.8462 18.50846,10.27745 8.94951,4.09528 17.61914,6.71045 27.46644,7.36939 2.57551,0.17236 5.16253,1.9e-4 7.74379,2.7e-4 6.41915,-0.71977 6.63683,-0.5423 12.66719,-1.94896 1.57254,-0.36681 3.13087,-0.7972 4.67437,-1.27157 1.12563,-0.34595 3.26039,-2.36328 3.32718,-1.18759 0.27078,4.76694 -2.53563,3.0739 -3.78978,2.41378 -2.06959,-0.81861 -4.18175,-1.47062 -6.32444,-2.07741 -6.10647,-1.72929 -12.28715,-3.18088 -18.46075,-4.64567 -3.22787,-0.7078 -6.44813,-1.45131 -9.68364,-2.12337 -19.24334,-3.99717 -38.71006,-7.03951 -58.31085,-8.5775 -10.1218,-0.4862 -7.44284,1.9648 -6.12877,-3.44491 0.0427,-0.17552 -0.66472,0.14575 -0.49764,0.21437 1.04838,0.43054 2.16734,0.67071 3.27181,0.9249 4.87248,1.12133 11.15298,2.14335 15.89979,2.98025 13.904,2.34908 27.81344,4.6635 41.7909,6.54288 7.22029,0.97084 20.11963,2.55083 27.75408,3.11542 2.64858,0.19585 5.30829,0.18833 7.96245,0.2825 -0.88041,0.97977 -1.36093,2.62969 -2.64125,2.93933 -1.30516,0.31564 -2.48616,-1.03571 -3.7825,-1.38577 -2.7014,-0.72948 -5.45293,-1.25973 -8.18878,-1.84692 -12.16366,-2.61072 -24.40221,-4.87061 -36.69141,-6.80547 -11.41324,-1.63766 -15.42614,-2.32205 -26.68072,-3.5298 -3.52491,-0.37826 -7.0549,-0.71783 -10.59086,-0.97276 -2.48662,-0.17928 -5.24646,0.79418 -7.47193,-0.32949 -2.56084,-1.29301 3.01186,-3.65323 0.57571,-2.54642 0.98142,0.37775 1.94117,0.81749 2.94425,1.13326 2.54582,0.80146 11.28186,3.04772 13.23163,3.53483 11.39142,2.84592 22.83969,5.47999 34.36224,7.74193 4.92413,0.88591 9.83783,1.83177 14.77238,2.65775 25.24529,4.22577 50.72116,7.27861 76.29265,8.53709 2.73035,0.0499 5.46023,0.14562 8.19103,0.14963 1.31219,0.002 3.9766,-1.44337 3.93433,-0.13189 -0.0567,1.75805 -2.60358,2.37938 -4.0395,3.39526 -0.16852,0.11923 -0.40534,-0.0802 -0.61018,-0.10576 -0.53807,-0.0671 -2.46483,-0.23482 -2.86624,-0.27096 -5.1143,-0.47462 -10.24533,-0.81933 -15.31825,-1.66068 -9.19546,-1.58556 -18.29226,-3.65019 -27.41598,-5.59694 -9.44064,-1.95449 -18.87585,-3.96927 -28.38543,-5.56232 -3.50375,-0.55965 -7.02232,-1.0867 -10.43406,-2.08875 -3.21342,-0.85726 -6.40705,-1.79623 -9.67677,-2.42278 -2.25881,-0.4704 -4.53625,-0.86397 -6.77384,-1.42815 -2.75168,-0.86521 -5.35769,-2.12554 -7.96321,-3.34847 -9.0562,-4.1743 -18.26452,-8.02659 -27.72812,-11.18915 -5.33188,-1.67352 -10.67818,-3.43795 -16.25503,-4.08533 0,0 4.91126,-3.4222 4.91126,-3.4222 z"
       inkscape:connector-curvature="0" />
    <path
       style="fill:none;stroke:#000000;stroke-width:0.45796293;stroke-linecap:butt;stroke-linejoin:miter;stroke-miterlimit:4;stroke-opacity:1;stroke-dasharray:none;marker-start:none;marker-end:url(#Arrow1Lend)"
       d="m 310.00995,158.04179 c 11.90915,-14.6412 0,-11.15261 -7.6235,-7.43508"
       id="path4061"
       inkscape:connector-curvature="0"
       sodipodi:nodetypes="cc" />
    <path
       style="fill:none;stroke:#000000;stroke-width:0.45796293;stroke-linecap:butt;stroke-linejoin:miter;stroke-miterlimit:4;stroke-opacity:1;stroke-dasharray:none;marker-start:none;marker-end:url(#Arrow1Lend)"
       d="m 292.89633,158.04179 c 11.90915,-14.6412 0,-11.15261 -7.62351,-7.43508"
       id="path4061-9"
       inkscape:connector-curvature="0"
       sodipodi:nodetypes="cc" />
    <path
       style="fill:none;stroke:#000000;stroke-width:0.45796293;stroke-linecap:butt;stroke-linejoin:miter;stroke-miterlimit:4;stroke-opacity:1;stroke-dasharray:none;marker-start:none;marker-end:url(#Arrow1Lend)"
       d="m 372.75991,158.04179 c 11.90916,-14.6412 0,-11.15261 -7.62351,-7.43508"
       id="path4061-3"
       inkscape:connector-curvature="0"
       sodipodi:nodetypes="cc" />
  </g>
</svg>
